<svg xmlns="http://www.w3.org/2000/svg" viewBox="3118 429 50 50">
  <defs>
    <style>
      .cls-1 {
        fill: #90dfaa;
      }

      .cls-2 {
        fill: #e6e9ee;
      }

      .cls-3 {
        fill: #ffd05b;
      }

      .cls-4 {
        fill: #f1543f;
      }

      .cls-5 {
        fill: #ff7058;
      }

      .cls-6 {
        fill: #fff;
      }

      .cls-7 {
        fill: #f9b54c;
      }

      .cls-8 {
        fill: #324a5e;
      }
    </style>
  </defs>
  <g id="man" transform="translate(3118 429)">
    <ellipse id="Ellipse_12" data-name="Ellipse 12" class="cls-1" cx="25" cy="25" rx="25" ry="25"/>
    <g id="Group_30" data-name="Group 30" transform="translate(4.803 32.953)">
      <path id="Path_10" data-name="Path 10" class="cls-2" d="M252.315,363.2c-.039,0-.079.039-.157.039-.039,0-.079-.039-.157-.039Z" transform="translate(-232 -360.405)"/>
      <path id="Path_11" data-name="Path 11" class="cls-2" d="M89.115,341.611a24.965,24.965,0,0,1-40.315,0A25.574,25.574,0,0,1,61.162,334.8a14.984,14.984,0,0,0,1.181,6.614c1.5-3.465,6.575-3.78,6.575-3.78s5.079.276,6.614,3.78a15.139,15.139,0,0,0,1.181-6.614A25.515,25.515,0,0,1,89.115,341.611Z" transform="translate(-48.8 -334.8)"/>
    </g>
    <path id="Path_12" data-name="Path 12" class="cls-3" d="M202.841,280.592h0c0,.512-.315,3.228-6.063,5.433h-.315c-5.748-2.2-6.063-4.921-6.063-5.433h0a7.929,7.929,0,0,1,.709-2.992,6.621,6.621,0,0,0,11.024,0A7.252,7.252,0,0,1,202.841,280.592Z" transform="translate(-171.66 -250.277)"/>
    <path id="Path_13" data-name="Path 13" class="cls-4" d="M225.65,364.466l-1.26,2.52H220.06l-1.26-2.52a11.758,11.758,0,0,1,3.425-.866A11.48,11.48,0,0,1,225.65,364.466Z" transform="translate(-197.265 -327.813)"/>
    <path id="Path_14" data-name="Path 14" class="cls-5" d="M218,408.951a25.916,25.916,0,0,0,3.543.236,26.784,26.784,0,0,0,3.543-.236L223.709,398.4h-4.331Z" transform="translate(-196.543 -359.187)"/>
    <g id="Group_31" data-name="Group 31" transform="translate(17.135 30.236)">
      <path id="Path_15" data-name="Path 15" class="cls-6" d="M259.82,307.2s.276,3.15-6.22,5.551c0,0,5.079.276,6.614,3.78C260.254,316.688,263.206,309.05,259.82,307.2Z" transform="translate(-245.775 -307.2)"/>
      <path id="Path_16" data-name="Path 16" class="cls-6" d="M175.7,307.2c-3.346,1.85-.433,9.449-.354,9.331,1.5-3.465,6.614-3.78,6.614-3.78C175.425,310.35,175.7,307.2,175.7,307.2Z" transform="translate(-174.096 -307.2)"/>
    </g>
    <path id="Path_17" data-name="Path 17" class="cls-7" d="M206.054,278.387a7.284,7.284,0,0,1-11.654,0,4.691,4.691,0,0,1,.315-.787,7.62,7.62,0,0,0,5.512,2.953,7.486,7.486,0,0,0,5.512-2.953A4.691,4.691,0,0,1,206.054,278.387Z" transform="translate(-175.266 -250.277)"/>
    <path id="Path_18" data-name="Path 18" class="cls-3" d="M158.9,115.49c-.827,1.378-2.087,2.2-3.031,2.047-1.89,3.5-4.646,6.1-7.717,6.1s-5.827-2.638-7.717-6.1c-.945.118-2.2-.669-3.032-2.047-.984-1.614-1.024-3.386-.079-3.976a1.231,1.231,0,0,1,.748-.158,9.5,9.5,0,0,0,1.5,2.6c-.905-5,2.8-5.551,2.165-10.354,0,0,2.323,5.157,8.976,1.535l-.512.984c9.291-2.087,6.181,8.858,6.1,9.134a12.41,12.41,0,0,0,2.126-3.9.965.965,0,0,1,.472.158C159.926,112.065,159.887,113.876,158.9,115.49Z" transform="translate(-123.194 -93.403)"/>
    <path id="Path_19" data-name="Path 19" class="cls-8" d="M153.949,28.856a4.6,4.6,0,0,1,1.969.591c-3.346-3.819-8.819-1.378-8.819-1.378a5.132,5.132,0,0,1,3.5-1.417c-7.835-1.181-9.173,3.5-9.173,3.5a2.919,2.919,0,0,1-.315-1.732c-.551.945.039,2.835.039,2.835-.551-1.378-2.48-1.142-2.48-1.142,1.654.276,1.929,1.3,1.929,1.3a5.358,5.358,0,0,0-3.425,5.827l.984-1.181a9.85,9.85,0,0,0,1.89,8.307c-.905-5,2.8-5.551,2.165-10.354,0,0,2.323,5.157,8.976,1.535l-.512.984c9.409-2.126,6.1,9.173,6.1,9.173a12.706,12.706,0,0,0,2.835-8.622l.394,1.575C161.074,31.572,153.949,28.856,153.949,28.856Z" transform="translate(-123.634 -23.856)"/>
  </g>
</svg>
